<mxfile host="app.diagrams.net" agent="Mozilla/5.0 (Windows NT 10.0; Win64; x64) AppleWebKit/537.36 (KHTML, like Gecko) Chrome/138.0.0.0 Safari/537.36" version="28.0.5" pages="5">
  <diagram name="Architecture" id="7mvFtmEtGaDlqthFwC0z">
    <mxGraphModel dx="1426" dy="743" grid="1" gridSize="10" guides="1" tooltips="1" connect="1" arrows="1" fold="1" page="1" pageScale="1" pageWidth="827" pageHeight="1169" math="0" shadow="0">
      <root>
        <mxCell id="0" />
        <mxCell id="1" parent="0" />
        <mxCell id="f3fQvSXxEz5hIsmCVOa4-14" value="" style="group;align=center;fontSize=14;" vertex="1" connectable="0" parent="1">
          <mxGeometry x="129" y="185" width="570" height="800" as="geometry" />
        </mxCell>
        <mxCell id="f3fQvSXxEz5hIsmCVOa4-7" style="edgeStyle=orthogonalEdgeStyle;rounded=0;orthogonalLoop=1;jettySize=auto;html=1;exitX=0.5;exitY=1;exitDx=0;exitDy=0;entryX=0.5;entryY=0;entryDx=0;entryDy=0;fontSize=14;" edge="1" parent="f3fQvSXxEz5hIsmCVOa4-14" source="f3fQvSXxEz5hIsmCVOa4-1" target="f3fQvSXxEz5hIsmCVOa4-2">
          <mxGeometry relative="1" as="geometry" />
        </mxCell>
        <mxCell id="f3fQvSXxEz5hIsmCVOa4-1" value="&lt;font&gt;External Network&lt;/font&gt;" style="rounded=1;whiteSpace=wrap;html=1;fontSize=14;" vertex="1" parent="f3fQvSXxEz5hIsmCVOa4-14">
          <mxGeometry x="170.6122448979592" y="83.9160839160839" width="232.6530612244898" height="69.93006993006993" as="geometry" />
        </mxCell>
        <mxCell id="f3fQvSXxEz5hIsmCVOa4-8" style="edgeStyle=orthogonalEdgeStyle;rounded=0;orthogonalLoop=1;jettySize=auto;html=1;exitX=0.5;exitY=1;exitDx=0;exitDy=0;entryX=0.5;entryY=0;entryDx=0;entryDy=0;fontSize=14;" edge="1" parent="f3fQvSXxEz5hIsmCVOa4-14" source="f3fQvSXxEz5hIsmCVOa4-2" target="f3fQvSXxEz5hIsmCVOa4-3">
          <mxGeometry relative="1" as="geometry" />
        </mxCell>
        <mxCell id="f3fQvSXxEz5hIsmCVOa4-2" value="Packet Sniffer&lt;div&gt;(Python + Scapy)&lt;/div&gt;" style="rounded=1;whiteSpace=wrap;html=1;fontSize=14;" vertex="1" parent="f3fQvSXxEz5hIsmCVOa4-14">
          <mxGeometry x="105.98639455782313" y="218.18181818181816" width="361.90476190476187" height="83.9160839160839" as="geometry" />
        </mxCell>
        <mxCell id="f3fQvSXxEz5hIsmCVOa4-9" style="edgeStyle=orthogonalEdgeStyle;rounded=0;orthogonalLoop=1;jettySize=auto;html=1;exitX=1;exitY=0.5;exitDx=0;exitDy=0;entryX=0.5;entryY=0;entryDx=0;entryDy=0;fontSize=14;" edge="1" parent="f3fQvSXxEz5hIsmCVOa4-14" source="f3fQvSXxEz5hIsmCVOa4-3" target="f3fQvSXxEz5hIsmCVOa4-5">
          <mxGeometry relative="1" as="geometry" />
        </mxCell>
        <mxCell id="f3fQvSXxEz5hIsmCVOa4-10" style="edgeStyle=orthogonalEdgeStyle;rounded=0;orthogonalLoop=1;jettySize=auto;html=1;exitX=0;exitY=0.5;exitDx=0;exitDy=0;fontSize=14;" edge="1" parent="f3fQvSXxEz5hIsmCVOa4-14" source="f3fQvSXxEz5hIsmCVOa4-3" target="f3fQvSXxEz5hIsmCVOa4-4">
          <mxGeometry relative="1" as="geometry" />
        </mxCell>
        <mxCell id="f3fQvSXxEz5hIsmCVOa4-3" value="Machine Learning Classifier&lt;div&gt;(Random Forest / IF)&lt;/div&gt;" style="rounded=1;whiteSpace=wrap;html=1;fontSize=14;" vertex="1" parent="f3fQvSXxEz5hIsmCVOa4-14">
          <mxGeometry x="118.91156462585035" y="377.6223776223776" width="336.0544217687075" height="83.9160839160839" as="geometry" />
        </mxCell>
        <mxCell id="f3fQvSXxEz5hIsmCVOa4-11" style="edgeStyle=orthogonalEdgeStyle;rounded=0;orthogonalLoop=1;jettySize=auto;html=1;exitX=0.5;exitY=1;exitDx=0;exitDy=0;entryX=0.5;entryY=0;entryDx=0;entryDy=0;fontSize=14;" edge="1" parent="f3fQvSXxEz5hIsmCVOa4-14" source="f3fQvSXxEz5hIsmCVOa4-4" target="f3fQvSXxEz5hIsmCVOa4-6">
          <mxGeometry relative="1" as="geometry" />
        </mxCell>
        <mxCell id="f3fQvSXxEz5hIsmCVOa4-4" value="Node.js API&lt;div&gt;(Express + Web Socker)&lt;/div&gt;" style="rounded=1;whiteSpace=wrap;html=1;fontSize=14;" vertex="1" parent="f3fQvSXxEz5hIsmCVOa4-14">
          <mxGeometry y="513.2867132867133" width="155.10204081632654" height="83.9160839160839" as="geometry" />
        </mxCell>
        <mxCell id="f3fQvSXxEz5hIsmCVOa4-12" style="edgeStyle=orthogonalEdgeStyle;rounded=0;orthogonalLoop=1;jettySize=auto;html=1;exitX=0.5;exitY=1;exitDx=0;exitDy=0;entryX=0.5;entryY=0;entryDx=0;entryDy=0;fontSize=14;" edge="1" parent="f3fQvSXxEz5hIsmCVOa4-14" source="f3fQvSXxEz5hIsmCVOa4-5" target="f3fQvSXxEz5hIsmCVOa4-6">
          <mxGeometry relative="1" as="geometry">
            <mxPoint x="286.9387755102041" y="699.3006993006993" as="targetPoint" />
          </mxGeometry>
        </mxCell>
        <mxCell id="f3fQvSXxEz5hIsmCVOa4-5" value="MongoDB&lt;div&gt;(Logs, Alerts)&lt;/div&gt;" style="rounded=1;whiteSpace=wrap;html=1;fontSize=14;" vertex="1" parent="f3fQvSXxEz5hIsmCVOa4-14">
          <mxGeometry x="414.8979591836735" y="513.2867132867133" width="155.10204081632654" height="83.9160839160839" as="geometry" />
        </mxCell>
        <mxCell id="f3fQvSXxEz5hIsmCVOa4-6" value="React Frontend&lt;div&gt;(Dashboard &amp;amp; Config)&lt;/div&gt;" style="rounded=1;whiteSpace=wrap;html=1;fontSize=14;" vertex="1" parent="f3fQvSXxEz5hIsmCVOa4-14">
          <mxGeometry x="209.3877551020408" y="716.083916083916" width="155.10204081632654" height="83.9160839160839" as="geometry" />
        </mxCell>
        <mxCell id="f3fQvSXxEz5hIsmCVOa4-13" value="&lt;h2&gt;&lt;font style=&quot;font-size: 16px;&quot;&gt;ML - Based Network Intrusion Detection System with Web Development Dashboard using Python and MERN Stack&lt;/font&gt;&lt;/h2&gt;" style="text;html=1;align=center;verticalAlign=middle;whiteSpace=wrap;rounded=0;fontSize=14;" vertex="1" parent="f3fQvSXxEz5hIsmCVOa4-14">
          <mxGeometry x="41.36054421768708" width="491.15646258503403" height="41.95804195804195" as="geometry" />
        </mxCell>
      </root>
    </mxGraphModel>
  </diagram>
  <diagram id="VG2sm6YL8FqoCIfxLchV" name="DFD Level 0 - Context Diagram">
    <mxGraphModel dx="1042" dy="527" grid="1" gridSize="10" guides="1" tooltips="1" connect="1" arrows="1" fold="1" page="1" pageScale="1" pageWidth="827" pageHeight="1169" math="0" shadow="0">
      <root>
        <mxCell id="0" />
        <mxCell id="1" parent="0" />
        <mxCell id="FM4BLsbudEaHI7x8mQoi-9" value="" style="group" vertex="1" connectable="0" parent="1">
          <mxGeometry x="120" y="402" width="602" height="365" as="geometry" />
        </mxCell>
        <mxCell id="FM4BLsbudEaHI7x8mQoi-6" style="edgeStyle=orthogonalEdgeStyle;rounded=0;orthogonalLoop=1;jettySize=auto;html=1;exitX=0.5;exitY=1;exitDx=0;exitDy=0;strokeWidth=2;" edge="1" parent="FM4BLsbudEaHI7x8mQoi-9" source="FM4BLsbudEaHI7x8mQoi-1" target="FM4BLsbudEaHI7x8mQoi-2">
          <mxGeometry relative="1" as="geometry" />
        </mxCell>
        <mxCell id="FM4BLsbudEaHI7x8mQoi-1" value="Network Traffic" style="ellipse;whiteSpace=wrap;html=1;fontSize=14;flipH=0;flipV=1;strokeWidth=2;" vertex="1" parent="FM4BLsbudEaHI7x8mQoi-9">
          <mxGeometry x="178" width="240" height="60" as="geometry" />
        </mxCell>
        <mxCell id="FM4BLsbudEaHI7x8mQoi-2" value="1.0 Network Intrusion Detection System" style="rounded=1;whiteSpace=wrap;html=1;fontSize=14;flipH=0;flipV=1;strokeWidth=2;" vertex="1" parent="FM4BLsbudEaHI7x8mQoi-9">
          <mxGeometry x="163" y="150" width="270" height="60" as="geometry" />
        </mxCell>
        <mxCell id="FM4BLsbudEaHI7x8mQoi-7" style="rounded=0;orthogonalLoop=1;jettySize=auto;html=1;exitX=0.5;exitY=0;exitDx=0;exitDy=0;entryX=0.5;entryY=1;entryDx=0;entryDy=0;strokeWidth=2;" edge="1" parent="FM4BLsbudEaHI7x8mQoi-9" source="FM4BLsbudEaHI7x8mQoi-4" target="FM4BLsbudEaHI7x8mQoi-2">
          <mxGeometry relative="1" as="geometry" />
        </mxCell>
        <mxCell id="FM4BLsbudEaHI7x8mQoi-4" value="Administrator" style="ellipse;whiteSpace=wrap;html=1;fontSize=14;flipH=0;flipV=1;strokeWidth=2;" vertex="1" parent="FM4BLsbudEaHI7x8mQoi-9">
          <mxGeometry y="304.5" width="240" height="60" as="geometry" />
        </mxCell>
        <mxCell id="FM4BLsbudEaHI7x8mQoi-8" style="rounded=0;orthogonalLoop=1;jettySize=auto;html=1;exitX=0.5;exitY=0;exitDx=0;exitDy=0;entryX=0.5;entryY=1;entryDx=0;entryDy=0;strokeWidth=2;" edge="1" parent="FM4BLsbudEaHI7x8mQoi-9" source="FM4BLsbudEaHI7x8mQoi-5" target="FM4BLsbudEaHI7x8mQoi-2">
          <mxGeometry relative="1" as="geometry">
            <mxPoint x="294" y="210" as="targetPoint" />
          </mxGeometry>
        </mxCell>
        <mxCell id="FM4BLsbudEaHI7x8mQoi-5" value="Alerts / Responds" style="ellipse;whiteSpace=wrap;html=1;fontSize=14;flipH=0;flipV=1;strokeWidth=2;" vertex="1" parent="FM4BLsbudEaHI7x8mQoi-9">
          <mxGeometry x="362" y="305" width="240" height="60" as="geometry" />
        </mxCell>
        <mxCell id="FM4BLsbudEaHI7x8mQoi-10" value="&lt;h3&gt;&lt;font style=&quot;font-size: 16px;&quot;&gt;DFD Level 0 - Context Diagram&lt;/font&gt;&lt;/h3&gt;" style="text;html=1;align=center;verticalAlign=middle;whiteSpace=wrap;rounded=0;" vertex="1" parent="1">
          <mxGeometry x="292" y="350" width="244" height="30" as="geometry" />
        </mxCell>
      </root>
    </mxGraphModel>
  </diagram>
  <diagram id="s9OUngW44MT33pjy9hwj" name="DFD Level 1 - Detailed Decomposition">
    <mxGraphModel dx="1678" dy="874" grid="1" gridSize="10" guides="1" tooltips="1" connect="1" arrows="1" fold="1" page="1" pageScale="1" pageWidth="827" pageHeight="1169" math="0" shadow="0">
      <root>
        <mxCell id="0" />
        <mxCell id="1" parent="0" />
        <mxCell id="KrhG2VQymt6GkeHHhPkg-11" style="edgeStyle=orthogonalEdgeStyle;rounded=0;orthogonalLoop=1;jettySize=auto;html=1;exitX=0.5;exitY=1;exitDx=0;exitDy=0;entryX=0.5;entryY=0;entryDx=0;entryDy=0;" edge="1" parent="1" source="KrhG2VQymt6GkeHHhPkg-1" target="KrhG2VQymt6GkeHHhPkg-2">
          <mxGeometry relative="1" as="geometry" />
        </mxCell>
        <mxCell id="KrhG2VQymt6GkeHHhPkg-1" value="Network Traffic" style="ellipse;whiteSpace=wrap;html=1;fontSize=14;" vertex="1" parent="1">
          <mxGeometry x="327" y="200" width="200" height="50" as="geometry" />
        </mxCell>
        <mxCell id="KrhG2VQymt6GkeHHhPkg-12" style="edgeStyle=orthogonalEdgeStyle;rounded=0;orthogonalLoop=1;jettySize=auto;html=1;exitX=0.5;exitY=1;exitDx=0;exitDy=0;entryX=0.5;entryY=0;entryDx=0;entryDy=0;" edge="1" parent="1" source="KrhG2VQymt6GkeHHhPkg-2" target="KrhG2VQymt6GkeHHhPkg-3">
          <mxGeometry relative="1" as="geometry" />
        </mxCell>
        <mxCell id="KrhG2VQymt6GkeHHhPkg-2" value="&lt;font style=&quot;font-size: 14px;&quot;&gt;1.1 Capture Packets&lt;/font&gt;" style="rounded=1;whiteSpace=wrap;html=1;" vertex="1" parent="1">
          <mxGeometry x="307" y="330" width="240" height="40" as="geometry" />
        </mxCell>
        <mxCell id="KrhG2VQymt6GkeHHhPkg-13" style="edgeStyle=orthogonalEdgeStyle;rounded=0;orthogonalLoop=1;jettySize=auto;html=1;exitX=0.5;exitY=1;exitDx=0;exitDy=0;" edge="1" parent="1" source="KrhG2VQymt6GkeHHhPkg-3" target="KrhG2VQymt6GkeHHhPkg-4">
          <mxGeometry relative="1" as="geometry" />
        </mxCell>
        <mxCell id="KrhG2VQymt6GkeHHhPkg-3" value="&lt;font style=&quot;font-size: 14px;&quot;&gt;1.2 Extract Features&lt;/font&gt;" style="rounded=1;whiteSpace=wrap;html=1;" vertex="1" parent="1">
          <mxGeometry x="307" y="450" width="240" height="40" as="geometry" />
        </mxCell>
        <mxCell id="KrhG2VQymt6GkeHHhPkg-14" value="" style="edgeStyle=orthogonalEdgeStyle;rounded=0;orthogonalLoop=1;jettySize=auto;html=1;" edge="1" parent="1" source="KrhG2VQymt6GkeHHhPkg-4" target="KrhG2VQymt6GkeHHhPkg-8">
          <mxGeometry relative="1" as="geometry" />
        </mxCell>
        <mxCell id="KrhG2VQymt6GkeHHhPkg-4" value="&lt;font style=&quot;font-size: 14px;&quot;&gt;1.3 Classify Traffic&lt;/font&gt;" style="rounded=1;whiteSpace=wrap;html=1;" vertex="1" parent="1">
          <mxGeometry x="307" y="570" width="240" height="40" as="geometry" />
        </mxCell>
        <mxCell id="KrhG2VQymt6GkeHHhPkg-17" style="edgeStyle=orthogonalEdgeStyle;rounded=0;orthogonalLoop=1;jettySize=auto;html=1;entryX=0.5;entryY=0;entryDx=0;entryDy=0;" edge="1" parent="1" source="KrhG2VQymt6GkeHHhPkg-5" target="KrhG2VQymt6GkeHHhPkg-6">
          <mxGeometry relative="1" as="geometry" />
        </mxCell>
        <mxCell id="KrhG2VQymt6GkeHHhPkg-5" value="&lt;font style=&quot;font-size: 14px;&quot;&gt;1.4 Store Alerts&lt;/font&gt;" style="rounded=1;whiteSpace=wrap;html=1;" vertex="1" parent="1">
          <mxGeometry x="307" y="690" width="240" height="40" as="geometry" />
        </mxCell>
        <mxCell id="KrhG2VQymt6GkeHHhPkg-18" style="edgeStyle=orthogonalEdgeStyle;rounded=0;orthogonalLoop=1;jettySize=auto;html=1;exitX=1;exitY=0.25;exitDx=0;exitDy=0;entryX=0;entryY=0.4;entryDx=0;entryDy=0;entryPerimeter=0;" edge="1" parent="1" source="KrhG2VQymt6GkeHHhPkg-6" target="KrhG2VQymt6GkeHHhPkg-9">
          <mxGeometry relative="1" as="geometry" />
        </mxCell>
        <mxCell id="KrhG2VQymt6GkeHHhPkg-20" style="edgeStyle=orthogonalEdgeStyle;rounded=0;orthogonalLoop=1;jettySize=auto;html=1;" edge="1" parent="1" source="KrhG2VQymt6GkeHHhPkg-6" target="KrhG2VQymt6GkeHHhPkg-10">
          <mxGeometry relative="1" as="geometry" />
        </mxCell>
        <mxCell id="KrhG2VQymt6GkeHHhPkg-6" value="&lt;font style=&quot;font-size: 14px;&quot;&gt;1.5 Display Dashboard&lt;/font&gt;" style="rounded=1;whiteSpace=wrap;html=1;" vertex="1" parent="1">
          <mxGeometry x="307" y="810" width="240" height="40" as="geometry" />
        </mxCell>
        <mxCell id="KrhG2VQymt6GkeHHhPkg-16" style="edgeStyle=orthogonalEdgeStyle;rounded=0;orthogonalLoop=1;jettySize=auto;html=1;exitX=0.5;exitY=1;exitDx=0;exitDy=0;entryX=1;entryY=0.5;entryDx=0;entryDy=0;" edge="1" parent="1" source="KrhG2VQymt6GkeHHhPkg-8" target="KrhG2VQymt6GkeHHhPkg-5">
          <mxGeometry relative="1" as="geometry" />
        </mxCell>
        <mxCell id="KrhG2VQymt6GkeHHhPkg-8" value="&lt;font style=&quot;font-size: 14px;&quot;&gt;D1: Alerts&amp;nbsp;&lt;/font&gt;" style="rounded=1;whiteSpace=wrap;html=1;" vertex="1" parent="1">
          <mxGeometry x="653" y="620" width="120" height="60" as="geometry" />
        </mxCell>
        <mxCell id="KrhG2VQymt6GkeHHhPkg-19" style="edgeStyle=orthogonalEdgeStyle;rounded=0;orthogonalLoop=1;jettySize=auto;html=1;exitX=0.008;exitY=0.6;exitDx=0;exitDy=0;entryX=1;entryY=0.75;entryDx=0;entryDy=0;exitPerimeter=0;" edge="1" parent="1" source="KrhG2VQymt6GkeHHhPkg-9" target="KrhG2VQymt6GkeHHhPkg-6">
          <mxGeometry relative="1" as="geometry" />
        </mxCell>
        <mxCell id="KrhG2VQymt6GkeHHhPkg-9" value="&lt;font style=&quot;font-size: 14px;&quot;&gt;D2: Config DB&lt;/font&gt;" style="rounded=1;whiteSpace=wrap;html=1;" vertex="1" parent="1">
          <mxGeometry x="653" y="780" width="120" height="100" as="geometry" />
        </mxCell>
        <mxCell id="KrhG2VQymt6GkeHHhPkg-10" value="&lt;font style=&quot;font-size: 14px;&quot;&gt;Administrator&lt;/font&gt;" style="ellipse;whiteSpace=wrap;html=1;" vertex="1" parent="1">
          <mxGeometry x="30" y="805" width="180" height="50" as="geometry" />
        </mxCell>
        <mxCell id="KrhG2VQymt6GkeHHhPkg-21" value="&lt;h3&gt;DFD Level 1 - Detailed Decomposition&lt;/h3&gt;" style="text;html=1;align=center;verticalAlign=middle;whiteSpace=wrap;rounded=0;fontSize=16;" vertex="1" parent="1">
          <mxGeometry x="242" y="140" width="349" height="30" as="geometry" />
        </mxCell>
        <mxCell id="KrhG2VQymt6GkeHHhPkg-23" value="&lt;font style=&quot;font-size: 14px;&quot;&gt;Captured Traffic&lt;/font&gt;" style="text;html=1;align=center;verticalAlign=middle;whiteSpace=wrap;rounded=0;" vertex="1" parent="1">
          <mxGeometry x="307" y="270" width="110" height="30" as="geometry" />
        </mxCell>
        <mxCell id="KrhG2VQymt6GkeHHhPkg-24" value="&lt;font style=&quot;font-size: 14px;&quot;&gt;Raw Packets&lt;/font&gt;" style="text;html=1;align=center;verticalAlign=middle;whiteSpace=wrap;rounded=0;" vertex="1" parent="1">
          <mxGeometry x="307" y="400" width="110" height="30" as="geometry" />
        </mxCell>
        <mxCell id="KrhG2VQymt6GkeHHhPkg-25" value="&lt;font style=&quot;font-size: 14px;&quot;&gt;Features&lt;/font&gt;" style="text;html=1;align=center;verticalAlign=middle;whiteSpace=wrap;rounded=0;" vertex="1" parent="1">
          <mxGeometry x="304" y="520" width="110" height="30" as="geometry" />
        </mxCell>
        <mxCell id="KrhG2VQymt6GkeHHhPkg-26" value="&lt;font style=&quot;font-size: 14px;&quot;&gt;Predictions / Alerts&lt;/font&gt;" style="text;html=1;align=center;verticalAlign=middle;whiteSpace=wrap;rounded=0;" vertex="1" parent="1">
          <mxGeometry x="600" y="555" width="110" height="30" as="geometry" />
        </mxCell>
        <mxCell id="KrhG2VQymt6GkeHHhPkg-27" value="&lt;font style=&quot;font-size: 14px;&quot;&gt;Alert Record&lt;/font&gt;" style="text;html=1;align=center;verticalAlign=middle;whiteSpace=wrap;rounded=0;" vertex="1" parent="1">
          <mxGeometry x="600" y="720" width="110" height="30" as="geometry" />
        </mxCell>
        <mxCell id="KrhG2VQymt6GkeHHhPkg-28" value="&lt;font style=&quot;font-size: 14px;&quot;&gt;Alert Data&lt;/font&gt;" style="text;html=1;align=center;verticalAlign=middle;whiteSpace=wrap;rounded=0;" vertex="1" parent="1">
          <mxGeometry x="304" y="760" width="110" height="30" as="geometry" />
        </mxCell>
        <mxCell id="KrhG2VQymt6GkeHHhPkg-29" value="&lt;font style=&quot;font-size: 14px;&quot;&gt;Save Config&lt;/font&gt;" style="text;html=1;align=center;verticalAlign=middle;whiteSpace=wrap;rounded=0;" vertex="1" parent="1">
          <mxGeometry x="543" y="790" width="110" height="30" as="geometry" />
        </mxCell>
        <mxCell id="KrhG2VQymt6GkeHHhPkg-30" value="&lt;font style=&quot;font-size: 14px;&quot;&gt;Configuration Data&lt;/font&gt;" style="text;html=1;align=center;verticalAlign=middle;whiteSpace=wrap;rounded=0;" vertex="1" parent="1">
          <mxGeometry x="543" y="850" width="110" height="30" as="geometry" />
        </mxCell>
        <mxCell id="KrhG2VQymt6GkeHHhPkg-31" value="&lt;font style=&quot;font-size: 14px;&quot;&gt;Settings&lt;/font&gt;" style="text;html=1;align=center;verticalAlign=middle;whiteSpace=wrap;rounded=0;" vertex="1" parent="1">
          <mxGeometry x="200" y="800" width="110" height="30" as="geometry" />
        </mxCell>
      </root>
    </mxGraphModel>
  </diagram>
  <diagram id="rT0V2MCDkBb9d_LvXjQT" name="ML-Based Network Intrusion Detection System – Flowchart">
    <mxGraphModel dx="1240" dy="646" grid="1" gridSize="10" guides="1" tooltips="1" connect="1" arrows="1" fold="1" page="1" pageScale="1" pageWidth="827" pageHeight="1169" math="0" shadow="0">
      <root>
        <mxCell id="0" />
        <mxCell id="1" parent="0" />
        <mxCell id="kUb6R_uRjcI-BUgn9UDH-16" style="edgeStyle=orthogonalEdgeStyle;rounded=0;orthogonalLoop=1;jettySize=auto;html=1;exitX=0.5;exitY=1;exitDx=0;exitDy=0;entryX=0.5;entryY=0;entryDx=0;entryDy=0;" edge="1" parent="1" source="kUb6R_uRjcI-BUgn9UDH-1" target="kUb6R_uRjcI-BUgn9UDH-6">
          <mxGeometry relative="1" as="geometry" />
        </mxCell>
        <mxCell id="kUb6R_uRjcI-BUgn9UDH-1" value="&lt;font style=&quot;font-size: 14px;&quot;&gt;Start&lt;/font&gt;" style="rounded=1;whiteSpace=wrap;html=1;" vertex="1" parent="1">
          <mxGeometry x="354" y="130" width="120" height="40" as="geometry" />
        </mxCell>
        <mxCell id="kUb6R_uRjcI-BUgn9UDH-2" value="&lt;h3&gt;&lt;font style=&quot;font-size: 16px;&quot;&gt;ML-Based Network Intrusion Detection System – Flowchart&lt;/font&gt;&lt;/h3&gt;" style="text;html=1;align=center;verticalAlign=middle;whiteSpace=wrap;rounded=0;" vertex="1" parent="1">
          <mxGeometry x="291" y="80" width="246" height="30" as="geometry" />
        </mxCell>
        <mxCell id="kUb6R_uRjcI-BUgn9UDH-17" style="edgeStyle=orthogonalEdgeStyle;rounded=0;orthogonalLoop=1;jettySize=auto;html=1;exitX=0.5;exitY=1;exitDx=0;exitDy=0;entryX=0.5;entryY=0;entryDx=0;entryDy=0;" edge="1" parent="1" source="kUb6R_uRjcI-BUgn9UDH-6" target="kUb6R_uRjcI-BUgn9UDH-7">
          <mxGeometry relative="1" as="geometry" />
        </mxCell>
        <mxCell id="kUb6R_uRjcI-BUgn9UDH-6" value="&lt;font style=&quot;font-size: 14px;&quot;&gt;Initialize Packet Sniffer&lt;/font&gt;" style="rounded=1;whiteSpace=wrap;html=1;" vertex="1" parent="1">
          <mxGeometry x="329" y="220" width="170" height="40" as="geometry" />
        </mxCell>
        <mxCell id="kUb6R_uRjcI-BUgn9UDH-18" style="edgeStyle=orthogonalEdgeStyle;rounded=0;orthogonalLoop=1;jettySize=auto;html=1;exitX=0.5;exitY=1;exitDx=0;exitDy=0;entryX=0.5;entryY=0;entryDx=0;entryDy=0;" edge="1" parent="1" source="kUb6R_uRjcI-BUgn9UDH-7" target="kUb6R_uRjcI-BUgn9UDH-8">
          <mxGeometry relative="1" as="geometry" />
        </mxCell>
        <mxCell id="kUb6R_uRjcI-BUgn9UDH-7" value="&lt;font style=&quot;font-size: 14px;&quot;&gt;Capture Packet&lt;/font&gt;" style="rounded=1;whiteSpace=wrap;html=1;" vertex="1" parent="1">
          <mxGeometry x="329" y="300" width="170" height="40" as="geometry" />
        </mxCell>
        <mxCell id="kUb6R_uRjcI-BUgn9UDH-19" style="edgeStyle=orthogonalEdgeStyle;rounded=0;orthogonalLoop=1;jettySize=auto;html=1;exitX=0.5;exitY=1;exitDx=0;exitDy=0;entryX=0.5;entryY=0;entryDx=0;entryDy=0;" edge="1" parent="1" source="kUb6R_uRjcI-BUgn9UDH-8" target="kUb6R_uRjcI-BUgn9UDH-9">
          <mxGeometry relative="1" as="geometry" />
        </mxCell>
        <mxCell id="kUb6R_uRjcI-BUgn9UDH-8" value="&lt;font style=&quot;font-size: 14px;&quot;&gt;Extract Features&lt;/font&gt;" style="rounded=1;whiteSpace=wrap;html=1;" vertex="1" parent="1">
          <mxGeometry x="329" y="380" width="170" height="40" as="geometry" />
        </mxCell>
        <mxCell id="kUb6R_uRjcI-BUgn9UDH-20" style="edgeStyle=orthogonalEdgeStyle;rounded=0;orthogonalLoop=1;jettySize=auto;html=1;exitX=0.5;exitY=1;exitDx=0;exitDy=0;entryX=0.5;entryY=0;entryDx=0;entryDy=0;" edge="1" parent="1" source="kUb6R_uRjcI-BUgn9UDH-9" target="kUb6R_uRjcI-BUgn9UDH-15">
          <mxGeometry relative="1" as="geometry" />
        </mxCell>
        <mxCell id="kUb6R_uRjcI-BUgn9UDH-9" value="&lt;font style=&quot;font-size: 14px;&quot;&gt;Classify Traffic&lt;/font&gt;" style="rounded=1;whiteSpace=wrap;html=1;" vertex="1" parent="1">
          <mxGeometry x="329" y="460" width="170" height="40" as="geometry" />
        </mxCell>
        <mxCell id="kUb6R_uRjcI-BUgn9UDH-25" style="edgeStyle=orthogonalEdgeStyle;rounded=0;orthogonalLoop=1;jettySize=auto;html=1;exitX=0.5;exitY=1;exitDx=0;exitDy=0;entryX=1;entryY=0.5;entryDx=0;entryDy=0;" edge="1" parent="1" source="kUb6R_uRjcI-BUgn9UDH-10" target="kUb6R_uRjcI-BUgn9UDH-13">
          <mxGeometry relative="1" as="geometry" />
        </mxCell>
        <mxCell id="kUb6R_uRjcI-BUgn9UDH-10" value="&lt;font style=&quot;font-size: 14px;&quot;&gt;Ignore Packet&lt;/font&gt;" style="rounded=1;whiteSpace=wrap;html=1;" vertex="1" parent="1">
          <mxGeometry x="560" y="740" width="170" height="40" as="geometry" />
        </mxCell>
        <mxCell id="kUb6R_uRjcI-BUgn9UDH-23" style="edgeStyle=orthogonalEdgeStyle;rounded=0;orthogonalLoop=1;jettySize=auto;html=1;exitX=0.5;exitY=1;exitDx=0;exitDy=0;entryX=0.5;entryY=0;entryDx=0;entryDy=0;" edge="1" parent="1" source="kUb6R_uRjcI-BUgn9UDH-11" target="kUb6R_uRjcI-BUgn9UDH-12">
          <mxGeometry relative="1" as="geometry" />
        </mxCell>
        <mxCell id="kUb6R_uRjcI-BUgn9UDH-11" value="&lt;font style=&quot;font-size: 14px;&quot;&gt;Save Alert&lt;/font&gt;" style="rounded=1;whiteSpace=wrap;html=1;" vertex="1" parent="1">
          <mxGeometry x="80" y="700" width="170" height="40" as="geometry" />
        </mxCell>
        <mxCell id="kUb6R_uRjcI-BUgn9UDH-24" style="edgeStyle=orthogonalEdgeStyle;rounded=0;orthogonalLoop=1;jettySize=auto;html=1;exitX=0.5;exitY=1;exitDx=0;exitDy=0;entryX=0.5;entryY=0;entryDx=0;entryDy=0;" edge="1" parent="1" source="kUb6R_uRjcI-BUgn9UDH-12" target="kUb6R_uRjcI-BUgn9UDH-13">
          <mxGeometry relative="1" as="geometry" />
        </mxCell>
        <mxCell id="kUb6R_uRjcI-BUgn9UDH-12" value="&lt;font style=&quot;font-size: 14px;&quot;&gt;Update Dashboard&lt;/font&gt;" style="rounded=1;whiteSpace=wrap;html=1;" vertex="1" parent="1">
          <mxGeometry x="80" y="780" width="170" height="40" as="geometry" />
        </mxCell>
        <mxCell id="kUb6R_uRjcI-BUgn9UDH-26" style="edgeStyle=orthogonalEdgeStyle;rounded=0;orthogonalLoop=1;jettySize=auto;html=1;exitX=0.5;exitY=1;exitDx=0;exitDy=0;entryX=0.5;entryY=0;entryDx=0;entryDy=0;" edge="1" parent="1" source="kUb6R_uRjcI-BUgn9UDH-13" target="kUb6R_uRjcI-BUgn9UDH-14">
          <mxGeometry relative="1" as="geometry" />
        </mxCell>
        <mxCell id="kUb6R_uRjcI-BUgn9UDH-13" value="&lt;font style=&quot;font-size: 14px;&quot;&gt;Continue Sniffing&lt;/font&gt;" style="rounded=1;whiteSpace=wrap;html=1;" vertex="1" parent="1">
          <mxGeometry x="80" y="860" width="170" height="40" as="geometry" />
        </mxCell>
        <mxCell id="kUb6R_uRjcI-BUgn9UDH-14" value="&lt;font style=&quot;font-size: 14px;&quot;&gt;Stop&lt;/font&gt;" style="rounded=1;whiteSpace=wrap;html=1;" vertex="1" parent="1">
          <mxGeometry x="329" y="980" width="170" height="40" as="geometry" />
        </mxCell>
        <mxCell id="kUb6R_uRjcI-BUgn9UDH-21" style="edgeStyle=orthogonalEdgeStyle;rounded=0;orthogonalLoop=1;jettySize=auto;html=1;exitX=1;exitY=0.5;exitDx=0;exitDy=0;entryX=0.5;entryY=0;entryDx=0;entryDy=0;" edge="1" parent="1" source="kUb6R_uRjcI-BUgn9UDH-15" target="kUb6R_uRjcI-BUgn9UDH-10">
          <mxGeometry relative="1" as="geometry" />
        </mxCell>
        <mxCell id="kUb6R_uRjcI-BUgn9UDH-22" style="edgeStyle=orthogonalEdgeStyle;rounded=0;orthogonalLoop=1;jettySize=auto;html=1;exitX=0;exitY=0.5;exitDx=0;exitDy=0;" edge="1" parent="1" source="kUb6R_uRjcI-BUgn9UDH-15" target="kUb6R_uRjcI-BUgn9UDH-11">
          <mxGeometry relative="1" as="geometry" />
        </mxCell>
        <mxCell id="kUb6R_uRjcI-BUgn9UDH-15" value="Is&amp;nbsp;&lt;div&gt;Anomaly?&lt;/div&gt;" style="rhombus;whiteSpace=wrap;html=1;" vertex="1" parent="1">
          <mxGeometry x="361" y="550" width="106" height="100" as="geometry" />
        </mxCell>
        <mxCell id="kUb6R_uRjcI-BUgn9UDH-27" value="Yes" style="text;html=1;align=center;verticalAlign=middle;whiteSpace=wrap;rounded=0;" vertex="1" parent="1">
          <mxGeometry x="210" y="570" width="60" height="30" as="geometry" />
        </mxCell>
        <mxCell id="kUb6R_uRjcI-BUgn9UDH-28" value="No" style="text;html=1;align=center;verticalAlign=middle;whiteSpace=wrap;rounded=0;" vertex="1" parent="1">
          <mxGeometry x="560" y="570" width="60" height="30" as="geometry" />
        </mxCell>
      </root>
    </mxGraphModel>
  </diagram>
  <diagram id="KjAj-92wBsSMsDzNuWA7" name="Use Case Diagram – ML-Based Network Intrusion Detection System">
    <mxGraphModel dx="1426" dy="743" grid="1" gridSize="10" guides="1" tooltips="1" connect="1" arrows="1" fold="1" page="1" pageScale="1" pageWidth="827" pageHeight="1169" math="0" shadow="0">
      <root>
        <mxCell id="0" />
        <mxCell id="1" parent="0" />
        <mxCell id="i2QqWjKadX62IhJT4YAt-25" value="" style="rounded=0;whiteSpace=wrap;html=1;" vertex="1" parent="1">
          <mxGeometry x="254" y="300" width="320" height="570" as="geometry" />
        </mxCell>
        <mxCell id="i2QqWjKadX62IhJT4YAt-26" style="rounded=0;orthogonalLoop=1;jettySize=auto;html=1;exitX=1;exitY=0.3333333333333333;exitDx=0;exitDy=0;exitPerimeter=0;entryX=0;entryY=0.5;entryDx=0;entryDy=0;" edge="1" parent="1" source="i2QqWjKadX62IhJT4YAt-33" target="i2QqWjKadX62IhJT4YAt-34">
          <mxGeometry relative="1" as="geometry" />
        </mxCell>
        <mxCell id="i2QqWjKadX62IhJT4YAt-27" style="rounded=0;orthogonalLoop=1;jettySize=auto;html=1;exitX=1;exitY=0.3333333333333333;exitDx=0;exitDy=0;exitPerimeter=0;entryX=0;entryY=0.5;entryDx=0;entryDy=0;" edge="1" parent="1" source="i2QqWjKadX62IhJT4YAt-33" target="i2QqWjKadX62IhJT4YAt-35">
          <mxGeometry relative="1" as="geometry" />
        </mxCell>
        <mxCell id="i2QqWjKadX62IhJT4YAt-28" style="edgeStyle=none;rounded=0;orthogonalLoop=1;jettySize=auto;html=1;exitX=1;exitY=0.3333333333333333;exitDx=0;exitDy=0;exitPerimeter=0;entryX=0;entryY=0.5;entryDx=0;entryDy=0;" edge="1" parent="1" source="i2QqWjKadX62IhJT4YAt-33" target="i2QqWjKadX62IhJT4YAt-36">
          <mxGeometry relative="1" as="geometry" />
        </mxCell>
        <mxCell id="i2QqWjKadX62IhJT4YAt-29" style="edgeStyle=none;rounded=0;orthogonalLoop=1;jettySize=auto;html=1;exitX=1;exitY=0.3333333333333333;exitDx=0;exitDy=0;exitPerimeter=0;entryX=0;entryY=0.5;entryDx=0;entryDy=0;" edge="1" parent="1" source="i2QqWjKadX62IhJT4YAt-33" target="i2QqWjKadX62IhJT4YAt-37">
          <mxGeometry relative="1" as="geometry" />
        </mxCell>
        <mxCell id="i2QqWjKadX62IhJT4YAt-30" style="edgeStyle=none;rounded=0;orthogonalLoop=1;jettySize=auto;html=1;exitX=1;exitY=0.3333333333333333;exitDx=0;exitDy=0;exitPerimeter=0;entryX=0;entryY=0.5;entryDx=0;entryDy=0;" edge="1" parent="1" source="i2QqWjKadX62IhJT4YAt-33" target="i2QqWjKadX62IhJT4YAt-38">
          <mxGeometry relative="1" as="geometry" />
        </mxCell>
        <mxCell id="i2QqWjKadX62IhJT4YAt-31" style="edgeStyle=none;rounded=0;orthogonalLoop=1;jettySize=auto;html=1;exitX=1;exitY=0.3333333333333333;exitDx=0;exitDy=0;exitPerimeter=0;entryX=0;entryY=0.5;entryDx=0;entryDy=0;" edge="1" parent="1" source="i2QqWjKadX62IhJT4YAt-33" target="i2QqWjKadX62IhJT4YAt-42">
          <mxGeometry relative="1" as="geometry" />
        </mxCell>
        <mxCell id="i2QqWjKadX62IhJT4YAt-32" style="edgeStyle=none;rounded=0;orthogonalLoop=1;jettySize=auto;html=1;exitX=1;exitY=0.3333333333333333;exitDx=0;exitDy=0;exitPerimeter=0;entryX=0;entryY=0.5;entryDx=0;entryDy=0;" edge="1" parent="1" source="i2QqWjKadX62IhJT4YAt-33" target="i2QqWjKadX62IhJT4YAt-43">
          <mxGeometry relative="1" as="geometry" />
        </mxCell>
        <mxCell id="i2QqWjKadX62IhJT4YAt-33" value="Administrator" style="shape=umlActor;verticalLabelPosition=bottom;verticalAlign=top;html=1;outlineConnect=0;" vertex="1" parent="1">
          <mxGeometry x="104" y="532" width="80" height="130" as="geometry" />
        </mxCell>
        <mxCell id="i2QqWjKadX62IhJT4YAt-34" value="Send Traffic" style="ellipse;whiteSpace=wrap;html=1;" vertex="1" parent="1">
          <mxGeometry x="334" y="312" width="140" height="50" as="geometry" />
        </mxCell>
        <mxCell id="i2QqWjKadX62IhJT4YAt-35" value="Classify Traffic" style="ellipse;whiteSpace=wrap;html=1;" vertex="1" parent="1">
          <mxGeometry x="334" y="392" width="140" height="50" as="geometry" />
        </mxCell>
        <mxCell id="i2QqWjKadX62IhJT4YAt-36" value="View Alerts" style="ellipse;whiteSpace=wrap;html=1;" vertex="1" parent="1">
          <mxGeometry x="334" y="472" width="140" height="50" as="geometry" />
        </mxCell>
        <mxCell id="i2QqWjKadX62IhJT4YAt-37" value="Update Settings" style="ellipse;whiteSpace=wrap;html=1;" vertex="1" parent="1">
          <mxGeometry x="334" y="552" width="140" height="50" as="geometry" />
        </mxCell>
        <mxCell id="i2QqWjKadX62IhJT4YAt-38" value="Save Config" style="ellipse;whiteSpace=wrap;html=1;" vertex="1" parent="1">
          <mxGeometry x="334" y="632" width="140" height="50" as="geometry" />
        </mxCell>
        <mxCell id="i2QqWjKadX62IhJT4YAt-39" style="edgeStyle=none;rounded=0;orthogonalLoop=1;jettySize=auto;html=1;exitX=0;exitY=0.5;exitDx=0;exitDy=0;entryX=1;entryY=0.5;entryDx=0;entryDy=0;" edge="1" parent="1" source="i2QqWjKadX62IhJT4YAt-41" target="i2QqWjKadX62IhJT4YAt-35">
          <mxGeometry relative="1" as="geometry" />
        </mxCell>
        <mxCell id="i2QqWjKadX62IhJT4YAt-40" style="edgeStyle=none;rounded=0;orthogonalLoop=1;jettySize=auto;html=1;exitX=0;exitY=0.5;exitDx=0;exitDy=0;entryX=1;entryY=0.5;entryDx=0;entryDy=0;" edge="1" parent="1" source="i2QqWjKadX62IhJT4YAt-41" target="i2QqWjKadX62IhJT4YAt-36">
          <mxGeometry relative="1" as="geometry" />
        </mxCell>
        <mxCell id="i2QqWjKadX62IhJT4YAt-41" value="Intrusion Detection System" style="ellipse;whiteSpace=wrap;html=1;" vertex="1" parent="1">
          <mxGeometry x="604" y="417" width="120" height="70" as="geometry" />
        </mxCell>
        <mxCell id="i2QqWjKadX62IhJT4YAt-42" value="Save Config" style="ellipse;whiteSpace=wrap;html=1;" vertex="1" parent="1">
          <mxGeometry x="334" y="717" width="140" height="50" as="geometry" />
        </mxCell>
        <mxCell id="i2QqWjKadX62IhJT4YAt-43" value="Monitor Dashboard" style="ellipse;whiteSpace=wrap;html=1;" vertex="1" parent="1">
          <mxGeometry x="334" y="807" width="140" height="50" as="geometry" />
        </mxCell>
        <mxCell id="i2QqWjKadX62IhJT4YAt-44" value="&lt;h3&gt;Use Case Diagram – ML-Based Network Intrusion Detection System&lt;/h3&gt;" style="text;html=1;align=center;verticalAlign=middle;whiteSpace=wrap;rounded=0;" vertex="1" parent="1">
          <mxGeometry x="256" y="260" width="316" height="30" as="geometry" />
        </mxCell>
      </root>
    </mxGraphModel>
  </diagram>
</mxfile>
